# xmcd
#
# Track frame offsets:
#	150
#	9632
#	22459
#	34369
#	46663
#	56977
#	67977
#	79012
#	92097
#	103956
#	113866
#	123358
#	136450
#	146655
#	157717
#	169607
#	181059
#	193601
#	204426
#	214358
#	227915
#	241264
#	250901
#	262748
#	273403
#	285787
#
# Disc length: 3997 seconds
#
# Revision: 2
# Processed by: cddbd v1.5.2PL0 Copyright (c) Steve Scherf et al.
# Submitted via: audiograbber 1.83.01
#
DISCID=710f9b1a
DTITLE=Various Artist - Northern Soul Of Sue
DYEAR=1900
DGENRE=Northern Soul
TTITLE0=Billy Prophet - What Shall I Do
TTITLE1=The Poets - She Blew A Good Thing
TTITLE2=Sandra Phillips - World Without Sunshine
TTITLE3=Derek Martin - If You Go
TTITLE4=The Magnificent 7 - She's Called A Woman
TTITLE5=Sandra Phillips - You Succeeded
TTITLE6=Tina Britt - The Real Thing
TTITLE7=Marjorie Black - One More Hurt
TTITLE8=The Entertainers - Love In My Heart
TTITLE9=Eddie and Ernie - I Can't Do It
TTITLE10=The Poets - Young and So Innocent
TTITLE11=Ike and Tina Turner - I Idolise You
TTITLE12=Barbara George - Send For Me
TTITLE13=Elmore Morris - It Seemed Like Heaven To Me
TTITLE14=Jackie Shane - Any Other Way
TTITLE15=Barbara George - She's Got Everything
TTITLE16=Jackie Shane - In My Tenement
TTITLE17=Baby Washington - Leave Me Alone
TTITLE18=Jimmy Helms - You're Mine You
TTITLE19=Soul Sisters - Good Time Tonight
TTITLE20=Inez Fox - I See You My Love
TTITLE21=Derek Martin - Don't Put Me Down Like This
TTITLE22=Justine Washington - I Can't Wait Till I See My Baby's Face
TTITLE23=Lovelace Watkins - Dreams
TTITLE24=Derek Martin - Count To Ten
TTITLE25=Eddie and Ernie - Outcast
EXTD=
EXTT0=
EXTT1=
EXTT2=
EXTT3=
EXTT4=
EXTT5=
EXTT6=
EXTT7=
EXTT8=
EXTT9=
EXTT10=
EXTT11=
EXTT12=
EXTT13=
EXTT14=
EXTT15=
EXTT16=
EXTT17=
EXTT18=
EXTT19=
EXTT20=
EXTT21=
EXTT22=
EXTT23=
EXTT24=
EXTT25=
PLAYORDER=
